# xmcd
#
# Track frame offsets:
#	150
#	14018
#	26204
#	40395
#	52799
#	66581
#	75666
#	84851
#	94151
#	107646
#	118095
#	130196
#	142991
#	156770
#	165962
#	180592
#	192104
#	201048
#	209991
#	218751
#	230776
#	242141
#	255059
#	268401
#	279352
#	293179
#	305025
#	317306
#	326963
#
# Disc length: 4528 seconds
#
# Revision: 0
# Processed by: cddbd v1.5.2PL0 Copyright (c) Steve Scherf et al.
# Submitted via: dBpowerAMP V4.0
#
DISCID=a911ae1d
DTITLE=Kay Starr - Wheel Of Fortune
DYEAR=1900
DGENRE=
TTITLE0=Wheel Of Fortune
TTITLE1=If I Could Be With You
TTITLE2=Stormy Weather
TTITLE3=After You've Gone
TTITLE4=What A Difference A Day Made
TTITLE5=I've Got My Love To Keep Me Warm
TTITLE6=Ain't Misbehavin'
TTITLE7=After I Say I'm Sorry
TTITLE8=I'm Confessin'
TTITLE9=So Tired
TTITLE10=Honeysuckle Rose
TTITLE11=Where Or When
TTITLE12=Stardust
TTITLE13=Them There Eyes
TTITLE14=Should I
TTITLE15=Into Each Life Some Rain Must Fall
TTITLE16=I Can't Get Started With You
TTITLE17=You've Got To See Mama Every Night
TTITLE18=Pretty Baby
TTITLE19=There's A Lull In My Life
TTITLE20=It's A Great Feeling
TTITLE21=Love Me Or Leave Me
TTITLE22=Sharecroppin' Blues
TTITLE23=All Of Me
TTITLE24=Honey
TTITLE25=You Always Hurt The One You Love
TTITLE26=He's Funny That Way
TTITLE27=The Dixieland Band
TTITLE28=St Louis Blues
EXTD=
EXTT0=
EXTT1=
EXTT2=
EXTT3=
EXTT4=
EXTT5=
EXTT6=
EXTT7=
EXTT8=
EXTT9=
EXTT10=
EXTT11=
EXTT12=
EXTT13=
EXTT14=
EXTT15=
EXTT16=
EXTT17=
EXTT18=
EXTT19=
EXTT20=
EXTT21=
EXTT22=
EXTT23=
EXTT24=
EXTT25=
EXTT26=
EXTT27=
EXTT28=
PLAYORDER=
